<mxfile host="app.diagrams.net" modified="2024-02-28T07:18:52.196Z" agent="Mozilla/5.0 (X11; Linux x86_64) AppleWebKit/537.36 (KHTML, like Gecko) Chrome/121.0.0.0 Safari/537.36" etag="1gOAE0udo1ldaJDbWOOc" version="23.1.1" type="github">
  <diagram name="Page-1" id="c7558073-3199-34d8-9f00-42111426c3f3">
    <mxGraphModel dx="2650" dy="1048" grid="1" gridSize="10" guides="1" tooltips="1" connect="1" arrows="1" fold="1" page="1" pageScale="1" pageWidth="826" pageHeight="1169" background="none" math="0" shadow="0">
      <root>
        <mxCell id="0" />
        <mxCell id="1" parent="0" />
        <mxCell id="O2sIWzyAN3iopfaGM0Wt-103" value="&lt;font style=&quot;font-size: 16px;&quot;&gt;World Switch in Ucode&lt;/font&gt;" style="rounded=1;whiteSpace=wrap;html=1;fillColor=#d5e8d4;strokeColor=#82b366;glass=0;shadow=0;sketch=1;curveFitting=1;jiggle=2;" parent="1" vertex="1">
          <mxGeometry x="50" y="150" width="530" height="380" as="geometry" />
        </mxCell>
        <mxCell id="O2sIWzyAN3iopfaGM0Wt-96" value="VF0" style="rounded=1;whiteSpace=wrap;html=1;fillColor=#d0cee2;strokeColor=#56517e;glass=0;shadow=0;sketch=1;curveFitting=1;jiggle=2;" parent="1" vertex="1">
          <mxGeometry x="80" y="50" width="60" height="130" as="geometry" />
        </mxCell>
        <mxCell id="O2sIWzyAN3iopfaGM0Wt-98" value="VF1" style="rounded=1;whiteSpace=wrap;html=1;fillColor=#d0cee2;strokeColor=#56517e;glass=0;shadow=0;sketch=1;curveFitting=1;jiggle=2;" parent="1" vertex="1">
          <mxGeometry x="163.5" y="50" width="60" height="130" as="geometry" />
        </mxCell>
        <mxCell id="O2sIWzyAN3iopfaGM0Wt-99" value="VF2" style="rounded=1;whiteSpace=wrap;html=1;fillColor=#d0cee2;strokeColor=#56517e;glass=0;shadow=0;sketch=1;curveFitting=1;jiggle=2;" parent="1" vertex="1">
          <mxGeometry x="245" y="50" width="60" height="130" as="geometry" />
        </mxCell>
        <mxCell id="O2sIWzyAN3iopfaGM0Wt-100" value="VF3" style="rounded=1;whiteSpace=wrap;html=1;fillColor=#d0cee2;strokeColor=#56517e;glass=0;shadow=0;sketch=1;curveFitting=1;jiggle=2;" parent="1" vertex="1">
          <mxGeometry x="331" y="50" width="60" height="130" as="geometry" />
        </mxCell>
        <mxCell id="O2sIWzyAN3iopfaGM0Wt-101" value="VF4" style="rounded=1;whiteSpace=wrap;html=1;fillColor=#d0cee2;strokeColor=#56517e;glass=0;shadow=0;sketch=1;curveFitting=1;jiggle=2;" parent="1" vertex="1">
          <mxGeometry x="410" y="50" width="60" height="130" as="geometry" />
        </mxCell>
        <mxCell id="O2sIWzyAN3iopfaGM0Wt-102" value="VF5" style="rounded=1;whiteSpace=wrap;html=1;fillColor=#d0cee2;strokeColor=#56517e;glass=0;shadow=0;sketch=1;curveFitting=1;jiggle=2;" parent="1" vertex="1">
          <mxGeometry x="490" y="50" width="60" height="130" as="geometry" />
        </mxCell>
        <mxCell id="O2sIWzyAN3iopfaGM0Wt-128" value="DEC0" style="rounded=1;whiteSpace=wrap;html=1;sketch=1;curveFitting=1;jiggle=2;shadow=0;fillColor=#e3c800;fontColor=#000000;strokeColor=#B09500;" parent="1" vertex="1">
          <mxGeometry x="100" y="450" width="40" height="110" as="geometry" />
        </mxCell>
        <mxCell id="O2sIWzyAN3iopfaGM0Wt-129" value="DEC1" style="rounded=1;whiteSpace=wrap;html=1;sketch=1;curveFitting=1;jiggle=2;shadow=0;fillColor=#e3c800;fontColor=#000000;strokeColor=#B09500;" parent="1" vertex="1">
          <mxGeometry x="163.5" y="450" width="40" height="110" as="geometry" />
        </mxCell>
        <mxCell id="O2sIWzyAN3iopfaGM0Wt-130" value="DEC2" style="rounded=1;whiteSpace=wrap;html=1;sketch=1;curveFitting=1;jiggle=2;shadow=0;fillColor=#e3c800;fontColor=#000000;strokeColor=#B09500;" parent="1" vertex="1">
          <mxGeometry x="223.5" y="450" width="40" height="110" as="geometry" />
        </mxCell>
        <mxCell id="O2sIWzyAN3iopfaGM0Wt-132" value="DEC3" style="rounded=1;whiteSpace=wrap;html=1;sketch=1;curveFitting=1;jiggle=2;shadow=0;fillColor=#e3c800;fontColor=#000000;strokeColor=#B09500;" parent="1" vertex="1">
          <mxGeometry x="279.25" y="450" width="40" height="110" as="geometry" />
        </mxCell>
        <mxCell id="O2sIWzyAN3iopfaGM0Wt-133" value="DEC4" style="rounded=1;whiteSpace=wrap;html=1;sketch=1;curveFitting=1;jiggle=2;shadow=0;fillColor=#e3c800;fontColor=#000000;strokeColor=#B09500;" parent="1" vertex="1">
          <mxGeometry x="342.75" y="450" width="40" height="110" as="geometry" />
        </mxCell>
        <mxCell id="O2sIWzyAN3iopfaGM0Wt-134" value="DEC5" style="rounded=1;whiteSpace=wrap;html=1;sketch=1;curveFitting=1;jiggle=2;shadow=0;fillColor=#e3c800;fontColor=#000000;strokeColor=#B09500;" parent="1" vertex="1">
          <mxGeometry x="402.75" y="450" width="40" height="110" as="geometry" />
        </mxCell>
        <mxCell id="O2sIWzyAN3iopfaGM0Wt-135" value="ENC0" style="rounded=1;whiteSpace=wrap;html=1;sketch=1;curveFitting=1;jiggle=2;shadow=0;fillColor=#e3c800;fontColor=#000000;strokeColor=#B09500;" parent="1" vertex="1">
          <mxGeometry x="460" y="450" width="40" height="110" as="geometry" />
        </mxCell>
        <mxCell id="O2sIWzyAN3iopfaGM0Wt-136" value="" style="curved=1;endArrow=classic;html=1;rounded=0;" parent="1" edge="1">
          <mxGeometry width="50" height="50" relative="1" as="geometry">
            <mxPoint x="534.5" y="279.5" as="sourcePoint" />
            <mxPoint x="534" y="284" as="targetPoint" />
            <Array as="points">
              <mxPoint x="534" y="374" />
              <mxPoint x="414" y="459" />
              <mxPoint x="124" y="459" />
              <mxPoint x="64" y="299" />
              <mxPoint x="124" y="170" />
              <mxPoint x="484" y="174" />
            </Array>
          </mxGeometry>
        </mxCell>
        <mxCell id="GnBLR437fLqFZardxGhd-1" value="&lt;font style=&quot;font-size: 16px;&quot;&gt;World Switch in Ucode&lt;/font&gt;" style="rounded=1;whiteSpace=wrap;html=1;fillColor=#d5e8d4;strokeColor=#82b366;glass=0;shadow=0;sketch=1;curveFitting=1;jiggle=2;" parent="1" vertex="1">
          <mxGeometry x="50" y="700" width="530" height="380" as="geometry" />
        </mxCell>
        <mxCell id="GnBLR437fLqFZardxGhd-2" value="VF0" style="rounded=1;whiteSpace=wrap;html=1;fillColor=#d0cee2;strokeColor=#56517e;glass=0;shadow=0;sketch=1;curveFitting=1;jiggle=2;" parent="1" vertex="1">
          <mxGeometry x="80" y="600" width="60" height="130" as="geometry" />
        </mxCell>
        <mxCell id="GnBLR437fLqFZardxGhd-3" value="VF1" style="rounded=1;whiteSpace=wrap;html=1;fillColor=#d0cee2;strokeColor=#56517e;glass=0;shadow=0;sketch=1;curveFitting=1;jiggle=2;" parent="1" vertex="1">
          <mxGeometry x="163.5" y="600" width="60" height="130" as="geometry" />
        </mxCell>
        <mxCell id="GnBLR437fLqFZardxGhd-4" value="VF2" style="rounded=1;whiteSpace=wrap;html=1;fillColor=#d0cee2;strokeColor=#56517e;glass=0;shadow=0;sketch=1;curveFitting=1;jiggle=2;" parent="1" vertex="1">
          <mxGeometry x="245" y="600" width="60" height="130" as="geometry" />
        </mxCell>
        <mxCell id="GnBLR437fLqFZardxGhd-5" value="VF3" style="rounded=1;whiteSpace=wrap;html=1;fillColor=#d0cee2;strokeColor=#56517e;glass=0;shadow=0;sketch=1;curveFitting=1;jiggle=2;" parent="1" vertex="1">
          <mxGeometry x="331" y="600" width="60" height="130" as="geometry" />
        </mxCell>
        <mxCell id="GnBLR437fLqFZardxGhd-6" value="VF4" style="rounded=1;whiteSpace=wrap;html=1;fillColor=#d0cee2;strokeColor=#56517e;glass=0;shadow=0;sketch=1;curveFitting=1;jiggle=2;" parent="1" vertex="1">
          <mxGeometry x="410" y="600" width="60" height="130" as="geometry" />
        </mxCell>
        <mxCell id="GnBLR437fLqFZardxGhd-7" value="VF5" style="rounded=1;whiteSpace=wrap;html=1;fillColor=#d0cee2;strokeColor=#56517e;glass=0;shadow=0;sketch=1;curveFitting=1;jiggle=2;" parent="1" vertex="1">
          <mxGeometry x="490" y="600" width="60" height="130" as="geometry" />
        </mxCell>
        <mxCell id="GnBLR437fLqFZardxGhd-8" value="DEC0" style="rounded=1;whiteSpace=wrap;html=1;sketch=1;curveFitting=1;jiggle=2;shadow=0;fillColor=#e3c800;fontColor=#000000;strokeColor=#B09500;" parent="1" vertex="1">
          <mxGeometry x="100" y="1000" width="40" height="110" as="geometry" />
        </mxCell>
        <mxCell id="GnBLR437fLqFZardxGhd-9" value="DEC1" style="rounded=1;whiteSpace=wrap;html=1;sketch=1;curveFitting=1;jiggle=2;shadow=0;fillColor=#e3c800;fontColor=#000000;strokeColor=#B09500;" parent="1" vertex="1">
          <mxGeometry x="163.5" y="1000" width="40" height="110" as="geometry" />
        </mxCell>
        <mxCell id="GnBLR437fLqFZardxGhd-10" value="DEC2" style="rounded=1;whiteSpace=wrap;html=1;sketch=1;curveFitting=1;jiggle=2;shadow=0;fillColor=#e3c800;fontColor=#000000;strokeColor=#B09500;" parent="1" vertex="1">
          <mxGeometry x="223.5" y="1000" width="40" height="110" as="geometry" />
        </mxCell>
        <mxCell id="GnBLR437fLqFZardxGhd-11" value="DEC3" style="rounded=1;whiteSpace=wrap;html=1;sketch=1;curveFitting=1;jiggle=2;shadow=0;fillColor=#e3c800;fontColor=#000000;strokeColor=#B09500;" parent="1" vertex="1">
          <mxGeometry x="279.25" y="1000" width="40" height="110" as="geometry" />
        </mxCell>
        <mxCell id="GnBLR437fLqFZardxGhd-12" value="DEC4" style="rounded=1;whiteSpace=wrap;html=1;sketch=1;curveFitting=1;jiggle=2;shadow=0;fillColor=#e3c800;fontColor=#000000;strokeColor=#B09500;" parent="1" vertex="1">
          <mxGeometry x="342.75" y="1000" width="40" height="110" as="geometry" />
        </mxCell>
        <mxCell id="GnBLR437fLqFZardxGhd-13" value="DEC5" style="rounded=1;whiteSpace=wrap;html=1;sketch=1;curveFitting=1;jiggle=2;shadow=0;fillColor=#e3c800;fontColor=#000000;strokeColor=#B09500;" parent="1" vertex="1">
          <mxGeometry x="402.75" y="1000" width="40" height="110" as="geometry" />
        </mxCell>
        <mxCell id="GnBLR437fLqFZardxGhd-14" value="ENC0" style="rounded=1;whiteSpace=wrap;html=1;sketch=1;curveFitting=1;jiggle=2;shadow=0;fillColor=#e3c800;fontColor=#000000;strokeColor=#B09500;" parent="1" vertex="1">
          <mxGeometry x="460" y="1000" width="40" height="110" as="geometry" />
        </mxCell>
        <mxCell id="GnBLR437fLqFZardxGhd-15" value="" style="curved=1;endArrow=classic;html=1;rounded=0;" parent="1" edge="1">
          <mxGeometry width="50" height="50" relative="1" as="geometry">
            <mxPoint x="534.5" y="829.5" as="sourcePoint" />
            <mxPoint x="534" y="834" as="targetPoint" />
            <Array as="points">
              <mxPoint x="534" y="924" />
              <mxPoint x="414" y="1009" />
              <mxPoint x="124" y="1009" />
              <mxPoint x="64" y="849" />
              <mxPoint x="124" y="720" />
              <mxPoint x="484" y="724" />
            </Array>
          </mxGeometry>
        </mxCell>
        <mxCell id="GnBLR437fLqFZardxGhd-16" value="" style="endArrow=classic;html=1;rounded=0;entryX=0.5;entryY=0;entryDx=0;entryDy=0;" parent="1" target="GnBLR437fLqFZardxGhd-14" edge="1">
          <mxGeometry width="50" height="50" relative="1" as="geometry">
            <mxPoint x="110" y="730" as="sourcePoint" />
            <mxPoint x="200" y="800" as="targetPoint" />
          </mxGeometry>
        </mxCell>
        <mxCell id="GnBLR437fLqFZardxGhd-19" value="" style="endArrow=classic;html=1;rounded=0;entryX=0.5;entryY=0;entryDx=0;entryDy=0;exitX=0.5;exitY=1;exitDx=0;exitDy=0;" parent="1" target="GnBLR437fLqFZardxGhd-13" edge="1">
          <mxGeometry width="50" height="50" relative="1" as="geometry">
            <mxPoint x="110" y="730" as="sourcePoint" />
            <mxPoint x="432.75" y="1000" as="targetPoint" />
          </mxGeometry>
        </mxCell>
        <mxCell id="GnBLR437fLqFZardxGhd-20" value="" style="endArrow=classic;html=1;rounded=0;exitX=0.5;exitY=1;exitDx=0;exitDy=0;entryX=0.5;entryY=0;entryDx=0;entryDy=0;" parent="1" source="GnBLR437fLqFZardxGhd-2" target="GnBLR437fLqFZardxGhd-12" edge="1">
          <mxGeometry width="50" height="50" relative="1" as="geometry">
            <mxPoint x="104.25" y="730" as="sourcePoint" />
            <mxPoint x="494.25" y="880" as="targetPoint" />
          </mxGeometry>
        </mxCell>
        <mxCell id="GnBLR437fLqFZardxGhd-21" value="" style="endArrow=classic;html=1;rounded=0;exitX=0.5;exitY=1;exitDx=0;exitDy=0;entryX=0.5;entryY=0;entryDx=0;entryDy=0;" parent="1" source="GnBLR437fLqFZardxGhd-2" target="GnBLR437fLqFZardxGhd-11" edge="1">
          <mxGeometry width="50" height="50" relative="1" as="geometry">
            <mxPoint x="104.25" y="730" as="sourcePoint" />
            <mxPoint x="494.25" y="880" as="targetPoint" />
          </mxGeometry>
        </mxCell>
        <mxCell id="GnBLR437fLqFZardxGhd-22" value="" style="endArrow=classic;html=1;rounded=0;exitX=0.5;exitY=1;exitDx=0;exitDy=0;entryX=0.5;entryY=0;entryDx=0;entryDy=0;" parent="1" source="GnBLR437fLqFZardxGhd-2" target="GnBLR437fLqFZardxGhd-10" edge="1">
          <mxGeometry width="50" height="50" relative="1" as="geometry">
            <mxPoint x="245" y="739.9999999999998" as="sourcePoint" />
            <mxPoint x="371" y="1008.05" as="targetPoint" />
          </mxGeometry>
        </mxCell>
        <mxCell id="GnBLR437fLqFZardxGhd-23" value="" style="endArrow=classic;html=1;rounded=0;entryX=0.5;entryY=0;entryDx=0;entryDy=0;" parent="1" target="GnBLR437fLqFZardxGhd-9" edge="1">
          <mxGeometry width="50" height="50" relative="1" as="geometry">
            <mxPoint x="110" y="730" as="sourcePoint" />
            <mxPoint x="500" y="870" as="targetPoint" />
          </mxGeometry>
        </mxCell>
        <mxCell id="GnBLR437fLqFZardxGhd-24" value="" style="endArrow=classic;html=1;rounded=0;exitX=0.5;exitY=1;exitDx=0;exitDy=0;entryX=0.5;entryY=0;entryDx=0;entryDy=0;" parent="1" target="GnBLR437fLqFZardxGhd-8" edge="1">
          <mxGeometry width="50" height="50" relative="1" as="geometry">
            <mxPoint x="110" y="730" as="sourcePoint" />
            <mxPoint x="500" y="880" as="targetPoint" />
          </mxGeometry>
        </mxCell>
        <mxCell id="GnBLR437fLqFZardxGhd-25" value="" style="endArrow=classic;html=1;rounded=0;exitX=0.5;exitY=1;exitDx=0;exitDy=0;entryX=0.5;entryY=0;entryDx=0;entryDy=0;curved=0;fillColor=#008a00;strokeColor=#005700;" parent="1" target="GnBLR437fLqFZardxGhd-8" edge="1">
          <mxGeometry width="50" height="50" relative="1" as="geometry">
            <mxPoint x="200" y="730" as="sourcePoint" />
            <mxPoint x="210" y="1000" as="targetPoint" />
          </mxGeometry>
        </mxCell>
        <mxCell id="GnBLR437fLqFZardxGhd-26" value="" style="endArrow=classic;html=1;rounded=0;entryX=0.5;entryY=0;entryDx=0;entryDy=0;curved=0;fillColor=#008a00;strokeColor=#005700;" parent="1" target="GnBLR437fLqFZardxGhd-9" edge="1">
          <mxGeometry width="50" height="50" relative="1" as="geometry">
            <mxPoint x="200" y="730" as="sourcePoint" />
            <mxPoint x="274" y="1000" as="targetPoint" />
          </mxGeometry>
        </mxCell>
        <mxCell id="GnBLR437fLqFZardxGhd-27" value="" style="endArrow=classic;html=1;rounded=0;exitX=0.5;exitY=1;exitDx=0;exitDy=0;entryX=0.5;entryY=0;entryDx=0;entryDy=0;curved=0;fillColor=#008a00;strokeColor=#005700;" parent="1" target="GnBLR437fLqFZardxGhd-10" edge="1">
          <mxGeometry width="50" height="50" relative="1" as="geometry">
            <mxPoint x="200" y="730" as="sourcePoint" />
            <mxPoint x="334" y="1000" as="targetPoint" />
          </mxGeometry>
        </mxCell>
        <mxCell id="GnBLR437fLqFZardxGhd-28" value="" style="endArrow=classic;html=1;rounded=0;exitX=0.5;exitY=1;exitDx=0;exitDy=0;entryX=0.5;entryY=0;entryDx=0;entryDy=0;curved=0;fillColor=#008a00;strokeColor=#005700;" parent="1" target="GnBLR437fLqFZardxGhd-11" edge="1">
          <mxGeometry width="50" height="50" relative="1" as="geometry">
            <mxPoint x="200" y="730" as="sourcePoint" />
            <mxPoint x="389" y="1000" as="targetPoint" />
          </mxGeometry>
        </mxCell>
        <mxCell id="GnBLR437fLqFZardxGhd-29" value="" style="endArrow=classic;html=1;rounded=0;exitX=0.5;exitY=1;exitDx=0;exitDy=0;curved=0;fillColor=#008a00;strokeColor=#005700;" parent="1" edge="1">
          <mxGeometry width="50" height="50" relative="1" as="geometry">
            <mxPoint x="200" y="730" as="sourcePoint" />
            <mxPoint x="360" y="1000" as="targetPoint" />
          </mxGeometry>
        </mxCell>
        <mxCell id="GnBLR437fLqFZardxGhd-30" value="" style="endArrow=classic;html=1;rounded=0;entryX=0.5;entryY=0;entryDx=0;entryDy=0;exitX=0.5;exitY=1;exitDx=0;exitDy=0;curved=0;fillColor=#008a00;strokeColor=#005700;" parent="1" target="GnBLR437fLqFZardxGhd-13" edge="1">
          <mxGeometry width="50" height="50" relative="1" as="geometry">
            <mxPoint x="200" y="730" as="sourcePoint" />
            <mxPoint x="513" y="1000" as="targetPoint" />
          </mxGeometry>
        </mxCell>
        <mxCell id="GnBLR437fLqFZardxGhd-31" value="" style="endArrow=classic;html=1;rounded=0;entryX=0.5;entryY=0;entryDx=0;entryDy=0;curved=0;fillColor=#008a00;strokeColor=#005700;" parent="1" target="GnBLR437fLqFZardxGhd-14" edge="1">
          <mxGeometry width="50" height="50" relative="1" as="geometry">
            <mxPoint x="200" y="730" as="sourcePoint" />
            <mxPoint x="570" y="1000" as="targetPoint" />
          </mxGeometry>
        </mxCell>
        <mxCell id="GnBLR437fLqFZardxGhd-32" value="&lt;font style=&quot;font-size: 16px;&quot;&gt;World Switch in Ucode&lt;/font&gt;" style="rounded=1;whiteSpace=wrap;html=1;fillColor=#d5e8d4;strokeColor=#82b366;glass=0;shadow=0;sketch=1;curveFitting=1;jiggle=2;" parent="1" vertex="1">
          <mxGeometry x="640" y="685" width="530" height="380" as="geometry" />
        </mxCell>
        <mxCell id="GnBLR437fLqFZardxGhd-33" value="VF0" style="rounded=1;whiteSpace=wrap;html=1;fillColor=#d0cee2;strokeColor=#56517e;glass=0;shadow=0;sketch=1;curveFitting=1;jiggle=2;" parent="1" vertex="1">
          <mxGeometry x="670" y="585" width="60" height="130" as="geometry" />
        </mxCell>
        <mxCell id="GnBLR437fLqFZardxGhd-34" value="VF1" style="rounded=1;whiteSpace=wrap;html=1;fillColor=#d0cee2;strokeColor=#56517e;glass=0;shadow=0;sketch=1;curveFitting=1;jiggle=2;" parent="1" vertex="1">
          <mxGeometry x="753.5" y="585" width="60" height="130" as="geometry" />
        </mxCell>
        <mxCell id="GnBLR437fLqFZardxGhd-35" value="VF2" style="rounded=1;whiteSpace=wrap;html=1;fillColor=#d0cee2;strokeColor=#56517e;glass=0;shadow=0;sketch=1;curveFitting=1;jiggle=2;" parent="1" vertex="1">
          <mxGeometry x="835" y="585" width="60" height="130" as="geometry" />
        </mxCell>
        <mxCell id="GnBLR437fLqFZardxGhd-36" value="VF3" style="rounded=1;whiteSpace=wrap;html=1;fillColor=#d0cee2;strokeColor=#56517e;glass=0;shadow=0;sketch=1;curveFitting=1;jiggle=2;" parent="1" vertex="1">
          <mxGeometry x="921" y="585" width="60" height="130" as="geometry" />
        </mxCell>
        <mxCell id="GnBLR437fLqFZardxGhd-37" value="VF4" style="rounded=1;whiteSpace=wrap;html=1;fillColor=#d0cee2;strokeColor=#56517e;glass=0;shadow=0;sketch=1;curveFitting=1;jiggle=2;" parent="1" vertex="1">
          <mxGeometry x="1000" y="585" width="60" height="130" as="geometry" />
        </mxCell>
        <mxCell id="GnBLR437fLqFZardxGhd-38" value="VF5" style="rounded=1;whiteSpace=wrap;html=1;fillColor=#d0cee2;strokeColor=#56517e;glass=0;shadow=0;sketch=1;curveFitting=1;jiggle=2;" parent="1" vertex="1">
          <mxGeometry x="1080" y="585" width="60" height="130" as="geometry" />
        </mxCell>
        <mxCell id="GnBLR437fLqFZardxGhd-39" value="DEC0" style="rounded=1;whiteSpace=wrap;html=1;sketch=1;curveFitting=1;jiggle=2;shadow=0;fillColor=#e3c800;fontColor=#000000;strokeColor=#B09500;" parent="1" vertex="1">
          <mxGeometry x="690" y="985" width="40" height="110" as="geometry" />
        </mxCell>
        <mxCell id="GnBLR437fLqFZardxGhd-40" value="DEC1" style="rounded=1;whiteSpace=wrap;html=1;sketch=1;curveFitting=1;jiggle=2;shadow=0;fillColor=#e3c800;fontColor=#000000;strokeColor=#B09500;" parent="1" vertex="1">
          <mxGeometry x="753.5" y="985" width="40" height="110" as="geometry" />
        </mxCell>
        <mxCell id="GnBLR437fLqFZardxGhd-41" value="DEC2" style="rounded=1;whiteSpace=wrap;html=1;sketch=1;curveFitting=1;jiggle=2;shadow=0;fillColor=#e3c800;fontColor=#000000;strokeColor=#B09500;" parent="1" vertex="1">
          <mxGeometry x="813.5" y="985" width="40" height="110" as="geometry" />
        </mxCell>
        <mxCell id="GnBLR437fLqFZardxGhd-42" value="DEC3" style="rounded=1;whiteSpace=wrap;html=1;sketch=1;curveFitting=1;jiggle=2;shadow=0;fillColor=#e3c800;fontColor=#000000;strokeColor=#B09500;" parent="1" vertex="1">
          <mxGeometry x="869.25" y="985" width="40" height="110" as="geometry" />
        </mxCell>
        <mxCell id="GnBLR437fLqFZardxGhd-43" value="DEC4" style="rounded=1;whiteSpace=wrap;html=1;sketch=1;curveFitting=1;jiggle=2;shadow=0;fillColor=#e3c800;fontColor=#000000;strokeColor=#B09500;" parent="1" vertex="1">
          <mxGeometry x="932.75" y="985" width="40" height="110" as="geometry" />
        </mxCell>
        <mxCell id="GnBLR437fLqFZardxGhd-44" value="DEC5" style="rounded=1;whiteSpace=wrap;html=1;sketch=1;curveFitting=1;jiggle=2;shadow=0;fillColor=#e3c800;fontColor=#000000;strokeColor=#B09500;" parent="1" vertex="1">
          <mxGeometry x="992.75" y="985" width="40" height="110" as="geometry" />
        </mxCell>
        <mxCell id="GnBLR437fLqFZardxGhd-45" value="ENC0" style="rounded=1;whiteSpace=wrap;html=1;sketch=1;curveFitting=1;jiggle=2;shadow=0;fillColor=#e3c800;fontColor=#000000;strokeColor=#B09500;" parent="1" vertex="1">
          <mxGeometry x="1050" y="985" width="40" height="110" as="geometry" />
        </mxCell>
        <mxCell id="GnBLR437fLqFZardxGhd-46" value="" style="curved=1;endArrow=classic;html=1;rounded=0;" parent="1" edge="1">
          <mxGeometry width="50" height="50" relative="1" as="geometry">
            <mxPoint x="1124.5" y="814.5" as="sourcePoint" />
            <mxPoint x="1124" y="819" as="targetPoint" />
            <Array as="points">
              <mxPoint x="1124" y="909" />
              <mxPoint x="1004" y="994" />
              <mxPoint x="714" y="994" />
              <mxPoint x="654" y="834" />
              <mxPoint x="714" y="705" />
              <mxPoint x="1074" y="709" />
            </Array>
          </mxGeometry>
        </mxCell>
        <mxCell id="GnBLR437fLqFZardxGhd-47" value="" style="endArrow=classic;html=1;rounded=0;entryX=0.5;entryY=0;entryDx=0;entryDy=0;" parent="1" target="GnBLR437fLqFZardxGhd-45" edge="1">
          <mxGeometry width="50" height="50" relative="1" as="geometry">
            <mxPoint x="700" y="715" as="sourcePoint" />
            <mxPoint x="790" y="785" as="targetPoint" />
          </mxGeometry>
        </mxCell>
        <mxCell id="GnBLR437fLqFZardxGhd-48" value="" style="endArrow=classic;html=1;rounded=0;entryX=0.5;entryY=0;entryDx=0;entryDy=0;exitX=0.5;exitY=1;exitDx=0;exitDy=0;" parent="1" target="GnBLR437fLqFZardxGhd-44" edge="1">
          <mxGeometry width="50" height="50" relative="1" as="geometry">
            <mxPoint x="700" y="715" as="sourcePoint" />
            <mxPoint x="1022.75" y="985" as="targetPoint" />
          </mxGeometry>
        </mxCell>
        <mxCell id="GnBLR437fLqFZardxGhd-49" value="" style="endArrow=classic;html=1;rounded=0;exitX=0.5;exitY=1;exitDx=0;exitDy=0;entryX=0.5;entryY=0;entryDx=0;entryDy=0;" parent="1" source="GnBLR437fLqFZardxGhd-33" target="GnBLR437fLqFZardxGhd-43" edge="1">
          <mxGeometry width="50" height="50" relative="1" as="geometry">
            <mxPoint x="694.25" y="715" as="sourcePoint" />
            <mxPoint x="1084.25" y="865" as="targetPoint" />
          </mxGeometry>
        </mxCell>
        <mxCell id="GnBLR437fLqFZardxGhd-50" value="" style="endArrow=classic;html=1;rounded=0;exitX=0.5;exitY=1;exitDx=0;exitDy=0;entryX=0.5;entryY=0;entryDx=0;entryDy=0;" parent="1" source="GnBLR437fLqFZardxGhd-33" target="GnBLR437fLqFZardxGhd-42" edge="1">
          <mxGeometry width="50" height="50" relative="1" as="geometry">
            <mxPoint x="694.25" y="715" as="sourcePoint" />
            <mxPoint x="1084.25" y="865" as="targetPoint" />
          </mxGeometry>
        </mxCell>
        <mxCell id="GnBLR437fLqFZardxGhd-51" value="" style="endArrow=classic;html=1;rounded=0;exitX=0.5;exitY=1;exitDx=0;exitDy=0;entryX=0.5;entryY=0;entryDx=0;entryDy=0;" parent="1" source="GnBLR437fLqFZardxGhd-33" target="GnBLR437fLqFZardxGhd-41" edge="1">
          <mxGeometry width="50" height="50" relative="1" as="geometry">
            <mxPoint x="835" y="724.9999999999998" as="sourcePoint" />
            <mxPoint x="961" y="993.05" as="targetPoint" />
          </mxGeometry>
        </mxCell>
        <mxCell id="GnBLR437fLqFZardxGhd-52" value="" style="endArrow=classic;html=1;rounded=0;entryX=0.5;entryY=0;entryDx=0;entryDy=0;" parent="1" target="GnBLR437fLqFZardxGhd-40" edge="1">
          <mxGeometry width="50" height="50" relative="1" as="geometry">
            <mxPoint x="700" y="715" as="sourcePoint" />
            <mxPoint x="1090" y="855" as="targetPoint" />
          </mxGeometry>
        </mxCell>
        <mxCell id="GnBLR437fLqFZardxGhd-53" value="" style="endArrow=classic;html=1;rounded=0;exitX=0.5;exitY=1;exitDx=0;exitDy=0;entryX=0.5;entryY=0;entryDx=0;entryDy=0;" parent="1" target="GnBLR437fLqFZardxGhd-39" edge="1">
          <mxGeometry width="50" height="50" relative="1" as="geometry">
            <mxPoint x="700" y="715" as="sourcePoint" />
            <mxPoint x="1090" y="865" as="targetPoint" />
          </mxGeometry>
        </mxCell>
        <mxCell id="GnBLR437fLqFZardxGhd-61" value="&lt;font style=&quot;font-size: 16px;&quot;&gt;World Switch in Ucode&lt;/font&gt;" style="rounded=1;whiteSpace=wrap;html=1;fillColor=#d5e8d4;strokeColor=#82b366;glass=0;shadow=0;sketch=1;curveFitting=1;jiggle=2;" parent="1" vertex="1">
          <mxGeometry x="1330" y="686" width="530" height="380" as="geometry" />
        </mxCell>
        <mxCell id="GnBLR437fLqFZardxGhd-62" value="VF0" style="rounded=1;whiteSpace=wrap;html=1;fillColor=#d0cee2;strokeColor=#56517e;glass=0;shadow=0;sketch=1;curveFitting=1;jiggle=2;" parent="1" vertex="1">
          <mxGeometry x="1360" y="586" width="60" height="130" as="geometry" />
        </mxCell>
        <mxCell id="GnBLR437fLqFZardxGhd-63" value="VF1" style="rounded=1;whiteSpace=wrap;html=1;fillColor=#d0cee2;strokeColor=#56517e;glass=0;shadow=0;sketch=1;curveFitting=1;jiggle=2;" parent="1" vertex="1">
          <mxGeometry x="1443.5" y="586" width="60" height="130" as="geometry" />
        </mxCell>
        <mxCell id="GnBLR437fLqFZardxGhd-64" value="VF2" style="rounded=1;whiteSpace=wrap;html=1;fillColor=#d0cee2;strokeColor=#56517e;glass=0;shadow=0;sketch=1;curveFitting=1;jiggle=2;" parent="1" vertex="1">
          <mxGeometry x="1525" y="586" width="60" height="130" as="geometry" />
        </mxCell>
        <mxCell id="GnBLR437fLqFZardxGhd-65" value="VF3" style="rounded=1;whiteSpace=wrap;html=1;fillColor=#d0cee2;strokeColor=#56517e;glass=0;shadow=0;sketch=1;curveFitting=1;jiggle=2;" parent="1" vertex="1">
          <mxGeometry x="1611" y="586" width="60" height="130" as="geometry" />
        </mxCell>
        <mxCell id="GnBLR437fLqFZardxGhd-66" value="VF4" style="rounded=1;whiteSpace=wrap;html=1;fillColor=#d0cee2;strokeColor=#56517e;glass=0;shadow=0;sketch=1;curveFitting=1;jiggle=2;" parent="1" vertex="1">
          <mxGeometry x="1690" y="586" width="60" height="130" as="geometry" />
        </mxCell>
        <mxCell id="GnBLR437fLqFZardxGhd-67" value="VF5" style="rounded=1;whiteSpace=wrap;html=1;fillColor=#d0cee2;strokeColor=#56517e;glass=0;shadow=0;sketch=1;curveFitting=1;jiggle=2;" parent="1" vertex="1">
          <mxGeometry x="1770" y="586" width="60" height="130" as="geometry" />
        </mxCell>
        <mxCell id="GnBLR437fLqFZardxGhd-68" value="DEC0" style="rounded=1;whiteSpace=wrap;html=1;sketch=1;curveFitting=1;jiggle=2;shadow=0;fillColor=#e3c800;fontColor=#000000;strokeColor=#B09500;" parent="1" vertex="1">
          <mxGeometry x="1380" y="986" width="40" height="110" as="geometry" />
        </mxCell>
        <mxCell id="GnBLR437fLqFZardxGhd-69" value="DEC1" style="rounded=1;whiteSpace=wrap;html=1;sketch=1;curveFitting=1;jiggle=2;shadow=0;fillColor=#e3c800;fontColor=#000000;strokeColor=#B09500;" parent="1" vertex="1">
          <mxGeometry x="1443.5" y="986" width="40" height="110" as="geometry" />
        </mxCell>
        <mxCell id="GnBLR437fLqFZardxGhd-70" value="DEC2" style="rounded=1;whiteSpace=wrap;html=1;sketch=1;curveFitting=1;jiggle=2;shadow=0;fillColor=#e3c800;fontColor=#000000;strokeColor=#B09500;" parent="1" vertex="1">
          <mxGeometry x="1503.5" y="986" width="40" height="110" as="geometry" />
        </mxCell>
        <mxCell id="GnBLR437fLqFZardxGhd-71" value="DEC3" style="rounded=1;whiteSpace=wrap;html=1;sketch=1;curveFitting=1;jiggle=2;shadow=0;fillColor=#e3c800;fontColor=#000000;strokeColor=#B09500;" parent="1" vertex="1">
          <mxGeometry x="1559.25" y="986" width="40" height="110" as="geometry" />
        </mxCell>
        <mxCell id="GnBLR437fLqFZardxGhd-72" value="DEC4" style="rounded=1;whiteSpace=wrap;html=1;sketch=1;curveFitting=1;jiggle=2;shadow=0;fillColor=#e3c800;fontColor=#000000;strokeColor=#B09500;" parent="1" vertex="1">
          <mxGeometry x="1622.75" y="986" width="40" height="110" as="geometry" />
        </mxCell>
        <mxCell id="GnBLR437fLqFZardxGhd-73" value="DEC5" style="rounded=1;whiteSpace=wrap;html=1;sketch=1;curveFitting=1;jiggle=2;shadow=0;fillColor=#e3c800;fontColor=#000000;strokeColor=#B09500;" parent="1" vertex="1">
          <mxGeometry x="1682.75" y="986" width="40" height="110" as="geometry" />
        </mxCell>
        <mxCell id="GnBLR437fLqFZardxGhd-74" value="ENC0" style="rounded=1;whiteSpace=wrap;html=1;sketch=1;curveFitting=1;jiggle=2;shadow=0;fillColor=#e3c800;fontColor=#000000;strokeColor=#B09500;" parent="1" vertex="1">
          <mxGeometry x="1740" y="986" width="40" height="110" as="geometry" />
        </mxCell>
        <mxCell id="GnBLR437fLqFZardxGhd-75" value="" style="curved=1;endArrow=classic;html=1;rounded=0;" parent="1" edge="1">
          <mxGeometry width="50" height="50" relative="1" as="geometry">
            <mxPoint x="1814.5" y="815.5" as="sourcePoint" />
            <mxPoint x="1814" y="820" as="targetPoint" />
            <Array as="points">
              <mxPoint x="1814" y="910" />
              <mxPoint x="1694" y="995" />
              <mxPoint x="1404" y="995" />
              <mxPoint x="1344" y="835" />
              <mxPoint x="1404" y="706" />
              <mxPoint x="1764" y="710" />
            </Array>
          </mxGeometry>
        </mxCell>
        <mxCell id="GnBLR437fLqFZardxGhd-83" value="" style="endArrow=classic;html=1;rounded=0;exitX=0.5;exitY=1;exitDx=0;exitDy=0;entryX=0.5;entryY=0;entryDx=0;entryDy=0;curved=0;fillColor=#008a00;strokeColor=#005700;" parent="1" target="GnBLR437fLqFZardxGhd-68" edge="1">
          <mxGeometry width="50" height="50" relative="1" as="geometry">
            <mxPoint x="1480" y="716" as="sourcePoint" />
            <mxPoint x="1490" y="986" as="targetPoint" />
          </mxGeometry>
        </mxCell>
        <mxCell id="GnBLR437fLqFZardxGhd-84" value="" style="endArrow=classic;html=1;rounded=0;entryX=0.5;entryY=0;entryDx=0;entryDy=0;curved=0;fillColor=#008a00;strokeColor=#005700;" parent="1" target="GnBLR437fLqFZardxGhd-69" edge="1">
          <mxGeometry width="50" height="50" relative="1" as="geometry">
            <mxPoint x="1480" y="716" as="sourcePoint" />
            <mxPoint x="1554" y="986" as="targetPoint" />
          </mxGeometry>
        </mxCell>
        <mxCell id="GnBLR437fLqFZardxGhd-85" value="" style="endArrow=classic;html=1;rounded=0;exitX=0.5;exitY=1;exitDx=0;exitDy=0;entryX=0.5;entryY=0;entryDx=0;entryDy=0;curved=0;fillColor=#008a00;strokeColor=#005700;" parent="1" target="GnBLR437fLqFZardxGhd-70" edge="1">
          <mxGeometry width="50" height="50" relative="1" as="geometry">
            <mxPoint x="1480" y="716" as="sourcePoint" />
            <mxPoint x="1614" y="986" as="targetPoint" />
          </mxGeometry>
        </mxCell>
        <mxCell id="GnBLR437fLqFZardxGhd-86" value="" style="endArrow=classic;html=1;rounded=0;exitX=0.5;exitY=1;exitDx=0;exitDy=0;entryX=0.5;entryY=0;entryDx=0;entryDy=0;curved=0;fillColor=#008a00;strokeColor=#005700;" parent="1" target="GnBLR437fLqFZardxGhd-71" edge="1">
          <mxGeometry width="50" height="50" relative="1" as="geometry">
            <mxPoint x="1480" y="716" as="sourcePoint" />
            <mxPoint x="1669" y="986" as="targetPoint" />
          </mxGeometry>
        </mxCell>
        <mxCell id="GnBLR437fLqFZardxGhd-87" value="" style="endArrow=classic;html=1;rounded=0;exitX=0.5;exitY=1;exitDx=0;exitDy=0;curved=0;fillColor=#008a00;strokeColor=#005700;" parent="1" edge="1">
          <mxGeometry width="50" height="50" relative="1" as="geometry">
            <mxPoint x="1480" y="716" as="sourcePoint" />
            <mxPoint x="1640" y="986" as="targetPoint" />
          </mxGeometry>
        </mxCell>
        <mxCell id="GnBLR437fLqFZardxGhd-88" value="" style="endArrow=classic;html=1;rounded=0;entryX=0.5;entryY=0;entryDx=0;entryDy=0;exitX=0.5;exitY=1;exitDx=0;exitDy=0;curved=0;fillColor=#008a00;strokeColor=#005700;" parent="1" target="GnBLR437fLqFZardxGhd-73" edge="1">
          <mxGeometry width="50" height="50" relative="1" as="geometry">
            <mxPoint x="1480" y="716" as="sourcePoint" />
            <mxPoint x="1793" y="986" as="targetPoint" />
          </mxGeometry>
        </mxCell>
        <mxCell id="GnBLR437fLqFZardxGhd-89" value="" style="endArrow=classic;html=1;rounded=0;entryX=0.5;entryY=0;entryDx=0;entryDy=0;curved=0;fillColor=#008a00;strokeColor=#005700;" parent="1" target="GnBLR437fLqFZardxGhd-74" edge="1">
          <mxGeometry width="50" height="50" relative="1" as="geometry">
            <mxPoint x="1480" y="716" as="sourcePoint" />
            <mxPoint x="1850" y="986" as="targetPoint" />
          </mxGeometry>
        </mxCell>
        <mxCell id="GnBLR437fLqFZardxGhd-90" value="" style="shape=flexArrow;endArrow=classic;html=1;rounded=0;" parent="1" edge="1">
          <mxGeometry width="50" height="50" relative="1" as="geometry">
            <mxPoint x="1190" y="870" as="sourcePoint" />
            <mxPoint x="1310" y="870" as="targetPoint" />
          </mxGeometry>
        </mxCell>
        <mxCell id="GnBLR437fLqFZardxGhd-91" value="" style="rounded=1;whiteSpace=wrap;html=1;fillColor=#b0e3e6;strokeColor=#0e8088;sketch=1;curveFitting=1;jiggle=2;glass=0;shadow=0;" parent="1" vertex="1">
          <mxGeometry x="10" y="1470" width="600" height="310" as="geometry" />
        </mxCell>
        <mxCell id="GnBLR437fLqFZardxGhd-92" value="DEC0" style="rounded=1;whiteSpace=wrap;html=1;sketch=1;curveFitting=1;jiggle=2;shadow=0;fillColor=#e3c800;fontColor=#000000;strokeColor=#B09500;" parent="1" vertex="1">
          <mxGeometry x="122" y="1740" width="40" height="110" as="geometry" />
        </mxCell>
        <mxCell id="GnBLR437fLqFZardxGhd-93" value="DEC1" style="rounded=1;whiteSpace=wrap;html=1;sketch=1;curveFitting=1;jiggle=2;shadow=0;fillColor=#e3c800;fontColor=#000000;strokeColor=#B09500;" parent="1" vertex="1">
          <mxGeometry x="185.5" y="1740" width="40" height="110" as="geometry" />
        </mxCell>
        <mxCell id="GnBLR437fLqFZardxGhd-94" value="DEC2" style="rounded=1;whiteSpace=wrap;html=1;sketch=1;curveFitting=1;jiggle=2;shadow=0;fillColor=#e3c800;fontColor=#000000;strokeColor=#B09500;" parent="1" vertex="1">
          <mxGeometry x="245.5" y="1740" width="40" height="110" as="geometry" />
        </mxCell>
        <mxCell id="GnBLR437fLqFZardxGhd-95" value="DEC3" style="rounded=1;whiteSpace=wrap;html=1;sketch=1;curveFitting=1;jiggle=2;shadow=0;fillColor=#e3c800;fontColor=#000000;strokeColor=#B09500;" parent="1" vertex="1">
          <mxGeometry x="301.25" y="1740" width="40" height="110" as="geometry" />
        </mxCell>
        <mxCell id="GnBLR437fLqFZardxGhd-96" value="DEC4" style="rounded=1;whiteSpace=wrap;html=1;sketch=1;curveFitting=1;jiggle=2;shadow=0;fillColor=#e3c800;fontColor=#000000;strokeColor=#B09500;" parent="1" vertex="1">
          <mxGeometry x="364.75" y="1740" width="40" height="110" as="geometry" />
        </mxCell>
        <mxCell id="GnBLR437fLqFZardxGhd-97" value="DEC5" style="rounded=1;whiteSpace=wrap;html=1;sketch=1;curveFitting=1;jiggle=2;shadow=0;fillColor=#e3c800;fontColor=#000000;strokeColor=#B09500;" parent="1" vertex="1">
          <mxGeometry x="424.75" y="1740" width="40" height="110" as="geometry" />
        </mxCell>
        <mxCell id="GnBLR437fLqFZardxGhd-99" value="" style="rounded=1;whiteSpace=wrap;html=1;sketch=1;curveFitting=1;jiggle=2;" parent="1" vertex="1">
          <mxGeometry x="885.75" y="1520" width="47" height="220" as="geometry" />
        </mxCell>
        <mxCell id="GnBLR437fLqFZardxGhd-101" value="" style="shape=table;startSize=0;container=1;collapsible=0;childLayout=tableLayout;fontSize=16;rounded=1;arcSize=22;shadow=0;swimlaneLine=0;fillColor=#60a917;strokeColor=#2D7600;sketch=1;curveFitting=1;jiggle=2;fontColor=#ffffff;" parent="1" vertex="1">
          <mxGeometry x="156.5" y="1361" width="50" height="219" as="geometry" />
        </mxCell>
        <mxCell id="GnBLR437fLqFZardxGhd-126" style="shape=tableRow;horizontal=0;startSize=0;swimlaneHead=0;swimlaneBody=0;strokeColor=inherit;top=0;left=0;bottom=0;right=0;collapsible=0;dropTarget=0;fillColor=none;points=[[0,0.5],[1,0.5]];portConstraint=eastwest;fontSize=16;" parent="GnBLR437fLqFZardxGhd-101" vertex="1">
          <mxGeometry width="50" height="55" as="geometry" />
        </mxCell>
        <mxCell id="GnBLR437fLqFZardxGhd-127" style="shape=partialRectangle;html=1;whiteSpace=wrap;connectable=0;strokeColor=inherit;overflow=hidden;fillColor=none;top=0;left=0;bottom=0;right=0;pointerEvents=1;fontSize=16;" parent="GnBLR437fLqFZardxGhd-126" vertex="1">
          <mxGeometry width="50" height="55" as="geometry">
            <mxRectangle width="50" height="55" as="alternateBounds" />
          </mxGeometry>
        </mxCell>
        <mxCell id="GnBLR437fLqFZardxGhd-102" value="" style="shape=tableRow;horizontal=0;startSize=0;swimlaneHead=0;swimlaneBody=0;strokeColor=inherit;top=0;left=0;bottom=0;right=0;collapsible=0;dropTarget=0;fillColor=none;points=[[0,0.5],[1,0.5]];portConstraint=eastwest;fontSize=16;" parent="GnBLR437fLqFZardxGhd-101" vertex="1">
          <mxGeometry y="55" width="50" height="55" as="geometry" />
        </mxCell>
        <mxCell id="GnBLR437fLqFZardxGhd-120" value="PKG2" style="shape=partialRectangle;html=1;whiteSpace=wrap;connectable=0;strokeColor=inherit;overflow=hidden;fillColor=none;top=0;left=0;bottom=0;right=0;pointerEvents=1;fontSize=16;" parent="GnBLR437fLqFZardxGhd-102" vertex="1">
          <mxGeometry width="50" height="55" as="geometry">
            <mxRectangle width="50" height="55" as="alternateBounds" />
          </mxGeometry>
        </mxCell>
        <mxCell id="GnBLR437fLqFZardxGhd-106" value="" style="shape=tableRow;horizontal=0;startSize=0;swimlaneHead=0;swimlaneBody=0;strokeColor=inherit;top=0;left=0;bottom=0;right=0;collapsible=0;dropTarget=0;fillColor=none;points=[[0,0.5],[1,0.5]];portConstraint=eastwest;fontSize=16;" parent="GnBLR437fLqFZardxGhd-101" vertex="1">
          <mxGeometry y="110" width="50" height="54" as="geometry" />
        </mxCell>
        <mxCell id="GnBLR437fLqFZardxGhd-121" value="PKG1" style="shape=partialRectangle;html=1;whiteSpace=wrap;connectable=0;strokeColor=inherit;overflow=hidden;fillColor=none;top=0;left=0;bottom=0;right=0;pointerEvents=1;fontSize=16;" parent="GnBLR437fLqFZardxGhd-106" vertex="1">
          <mxGeometry width="50" height="54" as="geometry">
            <mxRectangle width="50" height="54" as="alternateBounds" />
          </mxGeometry>
        </mxCell>
        <mxCell id="GnBLR437fLqFZardxGhd-110" value="" style="shape=tableRow;horizontal=0;startSize=0;swimlaneHead=0;swimlaneBody=0;strokeColor=inherit;top=0;left=0;bottom=0;right=0;collapsible=0;dropTarget=0;fillColor=none;points=[[0,0.5],[1,0.5]];portConstraint=eastwest;fontSize=16;" parent="GnBLR437fLqFZardxGhd-101" vertex="1">
          <mxGeometry y="164" width="50" height="55" as="geometry" />
        </mxCell>
        <mxCell id="GnBLR437fLqFZardxGhd-122" value="PKG0" style="shape=partialRectangle;html=1;whiteSpace=wrap;connectable=0;strokeColor=inherit;overflow=hidden;fillColor=none;top=0;left=0;bottom=0;right=0;pointerEvents=1;fontSize=16;" parent="GnBLR437fLqFZardxGhd-110" vertex="1">
          <mxGeometry width="50" height="55" as="geometry">
            <mxRectangle width="50" height="55" as="alternateBounds" />
          </mxGeometry>
        </mxCell>
        <mxCell id="GnBLR437fLqFZardxGhd-114" value="" style="verticalLabelPosition=bottom;verticalAlign=top;html=1;shape=mxgraph.basic.donut;dx=25;" parent="1" vertex="1">
          <mxGeometry x="960" y="1270" width="320" height="310" as="geometry" />
        </mxCell>
        <mxCell id="GnBLR437fLqFZardxGhd-130" value="" style="endArrow=classic;html=1;rounded=0;" parent="1" source="GnBLR437fLqFZardxGhd-110" target="GnBLR437fLqFZardxGhd-92" edge="1">
          <mxGeometry width="50" height="50" relative="1" as="geometry">
            <mxPoint x="164" y="1540" as="sourcePoint" />
            <mxPoint x="213.5" y="1600" as="targetPoint" />
          </mxGeometry>
        </mxCell>
        <mxCell id="GnBLR437fLqFZardxGhd-131" value="" style="endArrow=classic;html=1;rounded=0;entryX=0.5;entryY=0;entryDx=0;entryDy=0;exitX=0.505;exitY=1;exitDx=0;exitDy=0;exitPerimeter=0;" parent="1" source="GnBLR437fLqFZardxGhd-143" target="GnBLR437fLqFZardxGhd-94" edge="1">
          <mxGeometry width="50" height="50" relative="1" as="geometry">
            <mxPoint x="274.25" y="1510" as="sourcePoint" />
            <mxPoint x="324.25" y="1600" as="targetPoint" />
          </mxGeometry>
        </mxCell>
        <mxCell id="GnBLR437fLqFZardxGhd-132" value="" style="endArrow=classic;html=1;rounded=0;" parent="1" edge="1">
          <mxGeometry width="50" height="50" relative="1" as="geometry">
            <mxPoint x="-309.2" y="1660" as="sourcePoint" />
            <mxPoint x="-310.2" y="1880" as="targetPoint" />
          </mxGeometry>
        </mxCell>
        <mxCell id="GnBLR437fLqFZardxGhd-133" value="" style="endArrow=classic;html=1;rounded=0;entryX=0.5;entryY=0;entryDx=0;entryDy=0;exitX=1;exitY=0.5;exitDx=0;exitDy=0;" parent="1" source="GnBLR437fLqFZardxGhd-106" target="GnBLR437fLqFZardxGhd-93" edge="1">
          <mxGeometry width="50" height="50" relative="1" as="geometry">
            <mxPoint x="166.8" y="1520" as="sourcePoint" />
            <mxPoint x="216.8" y="1610" as="targetPoint" />
          </mxGeometry>
        </mxCell>
        <mxCell id="GnBLR437fLqFZardxGhd-134" value="" style="shape=table;startSize=0;container=1;collapsible=0;childLayout=tableLayout;fontSize=16;rounded=1;arcSize=22;shadow=0;swimlaneLine=1;fillColor=#60a917;fontColor=#ffffff;strokeColor=#2D7600;sketch=1;curveFitting=1;jiggle=2;" parent="1" vertex="1">
          <mxGeometry x="363" y="1361" width="50" height="219" as="geometry" />
        </mxCell>
        <mxCell id="GnBLR437fLqFZardxGhd-137" style="shape=tableRow;horizontal=0;startSize=0;swimlaneHead=0;swimlaneBody=0;strokeColor=inherit;top=0;left=0;bottom=0;right=0;collapsible=0;dropTarget=0;fillColor=none;points=[[0,0.5],[1,0.5]];portConstraint=eastwest;fontSize=16;" parent="GnBLR437fLqFZardxGhd-134" vertex="1">
          <mxGeometry width="50" height="55" as="geometry" />
        </mxCell>
        <mxCell id="GnBLR437fLqFZardxGhd-138" style="shape=partialRectangle;html=1;whiteSpace=wrap;connectable=0;strokeColor=inherit;overflow=hidden;fillColor=none;top=0;left=0;bottom=0;right=0;pointerEvents=1;fontSize=16;" parent="GnBLR437fLqFZardxGhd-137" vertex="1">
          <mxGeometry width="50" height="55" as="geometry">
            <mxRectangle width="50" height="55" as="alternateBounds" />
          </mxGeometry>
        </mxCell>
        <mxCell id="GnBLR437fLqFZardxGhd-139" value="" style="shape=tableRow;horizontal=0;startSize=0;swimlaneHead=0;swimlaneBody=0;strokeColor=inherit;top=0;left=0;bottom=0;right=0;collapsible=0;dropTarget=0;fillColor=none;points=[[0,0.5],[1,0.5]];portConstraint=eastwest;fontSize=16;" parent="GnBLR437fLqFZardxGhd-134" vertex="1">
          <mxGeometry y="55" width="50" height="55" as="geometry" />
        </mxCell>
        <mxCell id="GnBLR437fLqFZardxGhd-140" value="PKG2" style="shape=partialRectangle;html=1;whiteSpace=wrap;connectable=0;strokeColor=inherit;overflow=hidden;fillColor=none;top=0;left=0;bottom=0;right=0;pointerEvents=1;fontSize=16;" parent="GnBLR437fLqFZardxGhd-139" vertex="1">
          <mxGeometry width="50" height="55" as="geometry">
            <mxRectangle width="50" height="55" as="alternateBounds" />
          </mxGeometry>
        </mxCell>
        <mxCell id="GnBLR437fLqFZardxGhd-141" value="" style="shape=tableRow;horizontal=0;startSize=0;swimlaneHead=0;swimlaneBody=0;strokeColor=inherit;top=0;left=0;bottom=0;right=0;collapsible=0;dropTarget=0;fillColor=none;points=[[0,0.5],[1,0.5]];portConstraint=eastwest;fontSize=16;" parent="GnBLR437fLqFZardxGhd-134" vertex="1">
          <mxGeometry y="110" width="50" height="54" as="geometry" />
        </mxCell>
        <mxCell id="GnBLR437fLqFZardxGhd-142" value="PKG1" style="shape=partialRectangle;html=1;whiteSpace=wrap;connectable=0;strokeColor=inherit;overflow=hidden;fillColor=none;top=0;left=0;bottom=0;right=0;pointerEvents=1;fontSize=16;" parent="GnBLR437fLqFZardxGhd-141" vertex="1">
          <mxGeometry width="50" height="54" as="geometry">
            <mxRectangle width="50" height="54" as="alternateBounds" />
          </mxGeometry>
        </mxCell>
        <mxCell id="GnBLR437fLqFZardxGhd-143" value="" style="shape=tableRow;horizontal=0;startSize=0;swimlaneHead=0;swimlaneBody=0;strokeColor=inherit;top=0;left=0;bottom=0;right=0;collapsible=0;dropTarget=0;fillColor=none;points=[[0,0.5],[1,0.5]];portConstraint=eastwest;fontSize=16;" parent="GnBLR437fLqFZardxGhd-134" vertex="1">
          <mxGeometry y="164" width="50" height="55" as="geometry" />
        </mxCell>
        <mxCell id="GnBLR437fLqFZardxGhd-144" value="PKG0" style="shape=partialRectangle;html=1;whiteSpace=wrap;connectable=0;strokeColor=inherit;overflow=hidden;fillColor=none;top=0;left=0;bottom=0;right=0;pointerEvents=1;fontSize=16;" parent="GnBLR437fLqFZardxGhd-143" vertex="1">
          <mxGeometry width="50" height="55" as="geometry">
            <mxRectangle width="50" height="55" as="alternateBounds" />
          </mxGeometry>
        </mxCell>
        <mxCell id="GnBLR437fLqFZardxGhd-145" value="" style="endArrow=classic;html=1;rounded=0;entryX=0.5;entryY=0;entryDx=0;entryDy=0;exitX=0;exitY=0.5;exitDx=0;exitDy=0;" parent="1" source="GnBLR437fLqFZardxGhd-141" target="GnBLR437fLqFZardxGhd-95" edge="1">
          <mxGeometry width="50" height="50" relative="1" as="geometry">
            <mxPoint x="279.25" y="1460" as="sourcePoint" />
            <mxPoint x="379.25" y="1540" as="targetPoint" />
          </mxGeometry>
        </mxCell>
        <mxCell id="GnBLR437fLqFZardxGhd-146" value="" style="endArrow=classic;html=1;rounded=0;exitX=1;exitY=0.5;exitDx=0;exitDy=0;entryX=0.5;entryY=0;entryDx=0;entryDy=0;" parent="1" source="GnBLR437fLqFZardxGhd-139" target="GnBLR437fLqFZardxGhd-97" edge="1">
          <mxGeometry width="50" height="50" relative="1" as="geometry">
            <mxPoint x="610" y="1360" as="sourcePoint" />
            <mxPoint x="700" y="1410" as="targetPoint" />
          </mxGeometry>
        </mxCell>
        <mxCell id="GnBLR437fLqFZardxGhd-147" value="" style="endArrow=classic;html=1;rounded=0;entryX=0.5;entryY=0;entryDx=0;entryDy=0;exitX=1;exitY=0.5;exitDx=0;exitDy=0;" parent="1" source="GnBLR437fLqFZardxGhd-102" target="GnBLR437fLqFZardxGhd-96" edge="1">
          <mxGeometry width="50" height="50" relative="1" as="geometry">
            <mxPoint x="173.5" y="1400" as="sourcePoint" />
            <mxPoint x="263.5" y="1450" as="targetPoint" />
          </mxGeometry>
        </mxCell>
        <mxCell id="GnBLR437fLqFZardxGhd-148" value="" style="rounded=1;whiteSpace=wrap;html=1;fillColor=#d0cee2;strokeColor=#56517e;sketch=1;curveFitting=1;jiggle=2;glass=0;" parent="1" vertex="1">
          <mxGeometry x="-180" y="2170" width="430" height="260" as="geometry" />
        </mxCell>
        <mxCell id="GnBLR437fLqFZardxGhd-149" value="&lt;font style=&quot;font-size: 20px;&quot;&gt;MCU&lt;/font&gt;" style="rounded=1;whiteSpace=wrap;html=1;fillColor=#fa6800;strokeColor=#C73500;sketch=1;curveFitting=1;jiggle=2;fontColor=#000000;" parent="1" vertex="1">
          <mxGeometry x="-125" y="2320" width="120" height="60" as="geometry" />
        </mxCell>
        <mxCell id="GnBLR437fLqFZardxGhd-159" style="edgeStyle=orthogonalEdgeStyle;rounded=0;orthogonalLoop=1;jettySize=auto;html=1;exitX=0.5;exitY=0;exitDx=0;exitDy=0;shape=flexArrow;" parent="1" source="GnBLR437fLqFZardxGhd-150" target="GnBLR437fLqFZardxGhd-151" edge="1">
          <mxGeometry relative="1" as="geometry">
            <Array as="points">
              <mxPoint x="130" y="2110" />
            </Array>
          </mxGeometry>
        </mxCell>
        <mxCell id="GnBLR437fLqFZardxGhd-160" value="IRQ" style="edgeLabel;html=1;align=center;verticalAlign=middle;resizable=0;points=[];fontSize=20;" parent="GnBLR437fLqFZardxGhd-159" vertex="1" connectable="0">
          <mxGeometry x="-0.3472" y="-1" relative="1" as="geometry">
            <mxPoint x="-1" y="-12" as="offset" />
          </mxGeometry>
        </mxCell>
        <mxCell id="GnBLR437fLqFZardxGhd-150" value="&lt;font style=&quot;font-size: 20px;&quot;&gt;IH&lt;/font&gt;" style="rounded=1;whiteSpace=wrap;html=1;fillColor=#fa6800;fontColor=#000000;strokeColor=#C73500;sketch=1;curveFitting=1;jiggle=2;glass=0;" parent="1" vertex="1">
          <mxGeometry x="70" y="2320" width="120" height="60" as="geometry" />
        </mxCell>
        <mxCell id="GnBLR437fLqFZardxGhd-153" style="edgeStyle=orthogonalEdgeStyle;rounded=0;orthogonalLoop=1;jettySize=auto;html=1;entryX=0.5;entryY=0;entryDx=0;entryDy=0;shape=flexArrow;" parent="1" source="GnBLR437fLqFZardxGhd-151" target="GnBLR437fLqFZardxGhd-149" edge="1">
          <mxGeometry relative="1" as="geometry" />
        </mxCell>
        <mxCell id="GnBLR437fLqFZardxGhd-154" value="&lt;font style=&quot;font-size: 20px;&quot;&gt;Mailbox&lt;/font&gt;" style="edgeLabel;html=1;align=center;verticalAlign=middle;resizable=0;points=[];" parent="GnBLR437fLqFZardxGhd-153" vertex="1" connectable="0">
          <mxGeometry x="0.2256" y="-1" relative="1" as="geometry">
            <mxPoint as="offset" />
          </mxGeometry>
        </mxCell>
        <mxCell id="GnBLR437fLqFZardxGhd-151" value="Actor" style="shape=umlActor;verticalLabelPosition=bottom;verticalAlign=top;html=1;outlineConnect=0;" parent="1" vertex="1">
          <mxGeometry x="13" y="2081" width="30" height="60" as="geometry" />
        </mxCell>
        <mxCell id="GnBLR437fLqFZardxGhd-162" value="" style="shape=flexArrow;endArrow=classic;html=1;rounded=0;" parent="1" edge="1">
          <mxGeometry width="50" height="50" relative="1" as="geometry">
            <mxPoint x="4" y="2349.5" as="sourcePoint" />
            <mxPoint x="64" y="2350" as="targetPoint" />
          </mxGeometry>
        </mxCell>
        <mxCell id="ZIvRHzJ0gF61KebTuC_q-1" value="DEC0" style="rounded=1;whiteSpace=wrap;html=1;sketch=1;curveFitting=1;jiggle=2;shadow=0;fillColor=#e3c800;fontColor=#000000;strokeColor=#B09500;" vertex="1" parent="1">
          <mxGeometry x="620" y="1971" width="40" height="110" as="geometry" />
        </mxCell>
        <mxCell id="ZIvRHzJ0gF61KebTuC_q-2" value="&amp;nbsp; &amp;nbsp; Decoder0" style="rounded=1;whiteSpace=wrap;html=1;sketch=1;curveFitting=1;jiggle=2;glass=0;fillColor=#dae8fc;strokeColor=#6c8ebf;align=left;verticalAlign=top;arcSize=9;" vertex="1" parent="1">
          <mxGeometry x="500" y="2510" width="440" height="260" as="geometry" />
        </mxCell>
        <mxCell id="ZIvRHzJ0gF61KebTuC_q-3" value="&lt;div style=&quot;&quot;&gt;&lt;span style=&quot;background-color: initial;&quot;&gt;MCU&lt;/span&gt;&lt;/div&gt;" style="rounded=1;whiteSpace=wrap;html=1;sketch=1;curveFitting=1;jiggle=2;fillColor=#e3c800;strokeColor=#B09500;fontColor=#000000;align=left;arcSize=18;verticalAlign=top;" vertex="1" parent="1">
          <mxGeometry x="585" y="2580" width="275" height="60" as="geometry" />
        </mxCell>
        <mxCell id="ZIvRHzJ0gF61KebTuC_q-4" value="VC9000E" style="rounded=1;whiteSpace=wrap;html=1;sketch=1;curveFitting=1;jiggle=2;fillColor=#f8cecc;strokeColor=#b85450;" vertex="1" parent="1">
          <mxGeometry x="590" y="2690" width="270" height="60" as="geometry" />
        </mxCell>
        <mxCell id="ZIvRHzJ0gF61KebTuC_q-5" value="" style="rounded=1;whiteSpace=wrap;html=1;sketch=1;curveFitting=1;jiggle=2;fillColor=#76608a;fontColor=#ffffff;strokeColor=#432D57;" vertex="1" parent="1">
          <mxGeometry x="331" y="2030" width="45.25" height="202" as="geometry" />
        </mxCell>
        <mxCell id="ZIvRHzJ0gF61KebTuC_q-8" value="" style="shape=table;startSize=0;container=1;collapsible=0;childLayout=tableLayout;fontSize=16;rounded=1;arcSize=22;shadow=0;swimlaneLine=0;fillColor=#60a917;strokeColor=#2D7600;sketch=1;curveFitting=1;jiggle=2;fontColor=#ffffff;" vertex="1" parent="1">
          <mxGeometry x="615" y="2390" width="50" height="219" as="geometry" />
        </mxCell>
        <mxCell id="ZIvRHzJ0gF61KebTuC_q-9" style="shape=tableRow;horizontal=0;startSize=0;swimlaneHead=0;swimlaneBody=0;strokeColor=inherit;top=0;left=0;bottom=0;right=0;collapsible=0;dropTarget=0;fillColor=none;points=[[0,0.5],[1,0.5]];portConstraint=eastwest;fontSize=16;" vertex="1" parent="ZIvRHzJ0gF61KebTuC_q-8">
          <mxGeometry width="50" height="55" as="geometry" />
        </mxCell>
        <mxCell id="ZIvRHzJ0gF61KebTuC_q-10" style="shape=partialRectangle;html=1;whiteSpace=wrap;connectable=0;strokeColor=inherit;overflow=hidden;fillColor=none;top=0;left=0;bottom=0;right=0;pointerEvents=1;fontSize=16;" vertex="1" parent="ZIvRHzJ0gF61KebTuC_q-9">
          <mxGeometry width="50" height="55" as="geometry">
            <mxRectangle width="50" height="55" as="alternateBounds" />
          </mxGeometry>
        </mxCell>
        <mxCell id="ZIvRHzJ0gF61KebTuC_q-11" value="" style="shape=tableRow;horizontal=0;startSize=0;swimlaneHead=0;swimlaneBody=0;strokeColor=inherit;top=0;left=0;bottom=0;right=0;collapsible=0;dropTarget=0;fillColor=none;points=[[0,0.5],[1,0.5]];portConstraint=eastwest;fontSize=16;" vertex="1" parent="ZIvRHzJ0gF61KebTuC_q-8">
          <mxGeometry y="55" width="50" height="55" as="geometry" />
        </mxCell>
        <mxCell id="ZIvRHzJ0gF61KebTuC_q-12" value="PKG2" style="shape=partialRectangle;html=1;whiteSpace=wrap;connectable=0;strokeColor=inherit;overflow=hidden;fillColor=none;top=0;left=0;bottom=0;right=0;pointerEvents=1;fontSize=16;" vertex="1" parent="ZIvRHzJ0gF61KebTuC_q-11">
          <mxGeometry width="50" height="55" as="geometry">
            <mxRectangle width="50" height="55" as="alternateBounds" />
          </mxGeometry>
        </mxCell>
        <mxCell id="ZIvRHzJ0gF61KebTuC_q-13" value="" style="shape=tableRow;horizontal=0;startSize=0;swimlaneHead=0;swimlaneBody=0;strokeColor=inherit;top=0;left=0;bottom=0;right=0;collapsible=0;dropTarget=0;fillColor=none;points=[[0,0.5],[1,0.5]];portConstraint=eastwest;fontSize=16;" vertex="1" parent="ZIvRHzJ0gF61KebTuC_q-8">
          <mxGeometry y="110" width="50" height="54" as="geometry" />
        </mxCell>
        <mxCell id="ZIvRHzJ0gF61KebTuC_q-14" value="PKG1" style="shape=partialRectangle;html=1;whiteSpace=wrap;connectable=0;strokeColor=inherit;overflow=hidden;fillColor=none;top=0;left=0;bottom=0;right=0;pointerEvents=1;fontSize=16;" vertex="1" parent="ZIvRHzJ0gF61KebTuC_q-13">
          <mxGeometry width="50" height="54" as="geometry">
            <mxRectangle width="50" height="54" as="alternateBounds" />
          </mxGeometry>
        </mxCell>
        <mxCell id="ZIvRHzJ0gF61KebTuC_q-15" value="" style="shape=tableRow;horizontal=0;startSize=0;swimlaneHead=0;swimlaneBody=0;strokeColor=inherit;top=0;left=0;bottom=0;right=0;collapsible=0;dropTarget=0;fillColor=none;points=[[0,0.5],[1,0.5]];portConstraint=eastwest;fontSize=16;" vertex="1" parent="ZIvRHzJ0gF61KebTuC_q-8">
          <mxGeometry y="164" width="50" height="55" as="geometry" />
        </mxCell>
        <mxCell id="ZIvRHzJ0gF61KebTuC_q-16" value="PKG0" style="shape=partialRectangle;html=1;whiteSpace=wrap;connectable=0;strokeColor=inherit;overflow=hidden;fillColor=none;top=0;left=0;bottom=0;right=0;pointerEvents=1;fontSize=16;" vertex="1" parent="ZIvRHzJ0gF61KebTuC_q-15">
          <mxGeometry width="50" height="55" as="geometry">
            <mxRectangle width="50" height="55" as="alternateBounds" />
          </mxGeometry>
        </mxCell>
        <mxCell id="ZIvRHzJ0gF61KebTuC_q-17" value="" style="shape=table;startSize=0;container=1;collapsible=0;childLayout=tableLayout;fontSize=16;rounded=1;arcSize=22;shadow=0;swimlaneLine=0;fillColor=#60a917;strokeColor=#2D7600;sketch=1;curveFitting=1;jiggle=2;fontColor=#ffffff;" vertex="1" parent="1">
          <mxGeometry x="700" y="2390" width="50" height="219" as="geometry" />
        </mxCell>
        <mxCell id="ZIvRHzJ0gF61KebTuC_q-18" style="shape=tableRow;horizontal=0;startSize=0;swimlaneHead=0;swimlaneBody=0;strokeColor=inherit;top=0;left=0;bottom=0;right=0;collapsible=0;dropTarget=0;fillColor=none;points=[[0,0.5],[1,0.5]];portConstraint=eastwest;fontSize=16;" vertex="1" parent="ZIvRHzJ0gF61KebTuC_q-17">
          <mxGeometry width="50" height="55" as="geometry" />
        </mxCell>
        <mxCell id="ZIvRHzJ0gF61KebTuC_q-19" style="shape=partialRectangle;html=1;whiteSpace=wrap;connectable=0;strokeColor=inherit;overflow=hidden;fillColor=none;top=0;left=0;bottom=0;right=0;pointerEvents=1;fontSize=16;" vertex="1" parent="ZIvRHzJ0gF61KebTuC_q-18">
          <mxGeometry width="50" height="55" as="geometry">
            <mxRectangle width="50" height="55" as="alternateBounds" />
          </mxGeometry>
        </mxCell>
        <mxCell id="ZIvRHzJ0gF61KebTuC_q-20" value="" style="shape=tableRow;horizontal=0;startSize=0;swimlaneHead=0;swimlaneBody=0;strokeColor=inherit;top=0;left=0;bottom=0;right=0;collapsible=0;dropTarget=0;fillColor=none;points=[[0,0.5],[1,0.5]];portConstraint=eastwest;fontSize=16;" vertex="1" parent="ZIvRHzJ0gF61KebTuC_q-17">
          <mxGeometry y="55" width="50" height="55" as="geometry" />
        </mxCell>
        <mxCell id="ZIvRHzJ0gF61KebTuC_q-21" value="PKG2" style="shape=partialRectangle;html=1;whiteSpace=wrap;connectable=0;strokeColor=inherit;overflow=hidden;fillColor=none;top=0;left=0;bottom=0;right=0;pointerEvents=1;fontSize=16;" vertex="1" parent="ZIvRHzJ0gF61KebTuC_q-20">
          <mxGeometry width="50" height="55" as="geometry">
            <mxRectangle width="50" height="55" as="alternateBounds" />
          </mxGeometry>
        </mxCell>
        <mxCell id="ZIvRHzJ0gF61KebTuC_q-22" value="" style="shape=tableRow;horizontal=0;startSize=0;swimlaneHead=0;swimlaneBody=0;strokeColor=inherit;top=0;left=0;bottom=0;right=0;collapsible=0;dropTarget=0;fillColor=none;points=[[0,0.5],[1,0.5]];portConstraint=eastwest;fontSize=16;" vertex="1" parent="ZIvRHzJ0gF61KebTuC_q-17">
          <mxGeometry y="110" width="50" height="54" as="geometry" />
        </mxCell>
        <mxCell id="ZIvRHzJ0gF61KebTuC_q-23" value="PKG1" style="shape=partialRectangle;html=1;whiteSpace=wrap;connectable=0;strokeColor=inherit;overflow=hidden;fillColor=none;top=0;left=0;bottom=0;right=0;pointerEvents=1;fontSize=16;" vertex="1" parent="ZIvRHzJ0gF61KebTuC_q-22">
          <mxGeometry width="50" height="54" as="geometry">
            <mxRectangle width="50" height="54" as="alternateBounds" />
          </mxGeometry>
        </mxCell>
        <mxCell id="ZIvRHzJ0gF61KebTuC_q-24" value="" style="shape=tableRow;horizontal=0;startSize=0;swimlaneHead=0;swimlaneBody=0;strokeColor=inherit;top=0;left=0;bottom=0;right=0;collapsible=0;dropTarget=0;fillColor=none;points=[[0,0.5],[1,0.5]];portConstraint=eastwest;fontSize=16;" vertex="1" parent="ZIvRHzJ0gF61KebTuC_q-17">
          <mxGeometry y="164" width="50" height="55" as="geometry" />
        </mxCell>
        <mxCell id="ZIvRHzJ0gF61KebTuC_q-25" value="PKG0" style="shape=partialRectangle;html=1;whiteSpace=wrap;connectable=0;strokeColor=inherit;overflow=hidden;fillColor=none;top=0;left=0;bottom=0;right=0;pointerEvents=1;fontSize=16;" vertex="1" parent="ZIvRHzJ0gF61KebTuC_q-24">
          <mxGeometry width="50" height="55" as="geometry">
            <mxRectangle width="50" height="55" as="alternateBounds" />
          </mxGeometry>
        </mxCell>
        <mxCell id="ZIvRHzJ0gF61KebTuC_q-36" value="" style="shape=table;startSize=0;container=1;collapsible=0;childLayout=tableLayout;fontSize=16;rounded=1;arcSize=22;shadow=0;swimlaneLine=0;fillColor=#60a917;strokeColor=#2D7600;sketch=1;curveFitting=1;jiggle=2;fontColor=#ffffff;" vertex="1" parent="1">
          <mxGeometry x="785" y="2390" width="50" height="219" as="geometry" />
        </mxCell>
        <mxCell id="ZIvRHzJ0gF61KebTuC_q-37" style="shape=tableRow;horizontal=0;startSize=0;swimlaneHead=0;swimlaneBody=0;strokeColor=inherit;top=0;left=0;bottom=0;right=0;collapsible=0;dropTarget=0;fillColor=none;points=[[0,0.5],[1,0.5]];portConstraint=eastwest;fontSize=16;" vertex="1" parent="ZIvRHzJ0gF61KebTuC_q-36">
          <mxGeometry width="50" height="55" as="geometry" />
        </mxCell>
        <mxCell id="ZIvRHzJ0gF61KebTuC_q-38" style="shape=partialRectangle;html=1;whiteSpace=wrap;connectable=0;strokeColor=inherit;overflow=hidden;fillColor=none;top=0;left=0;bottom=0;right=0;pointerEvents=1;fontSize=16;" vertex="1" parent="ZIvRHzJ0gF61KebTuC_q-37">
          <mxGeometry width="50" height="55" as="geometry">
            <mxRectangle width="50" height="55" as="alternateBounds" />
          </mxGeometry>
        </mxCell>
        <mxCell id="ZIvRHzJ0gF61KebTuC_q-39" value="" style="shape=tableRow;horizontal=0;startSize=0;swimlaneHead=0;swimlaneBody=0;strokeColor=inherit;top=0;left=0;bottom=0;right=0;collapsible=0;dropTarget=0;fillColor=none;points=[[0,0.5],[1,0.5]];portConstraint=eastwest;fontSize=16;" vertex="1" parent="ZIvRHzJ0gF61KebTuC_q-36">
          <mxGeometry y="55" width="50" height="55" as="geometry" />
        </mxCell>
        <mxCell id="ZIvRHzJ0gF61KebTuC_q-40" value="PKG2" style="shape=partialRectangle;html=1;whiteSpace=wrap;connectable=0;strokeColor=inherit;overflow=hidden;fillColor=none;top=0;left=0;bottom=0;right=0;pointerEvents=1;fontSize=16;" vertex="1" parent="ZIvRHzJ0gF61KebTuC_q-39">
          <mxGeometry width="50" height="55" as="geometry">
            <mxRectangle width="50" height="55" as="alternateBounds" />
          </mxGeometry>
        </mxCell>
        <mxCell id="ZIvRHzJ0gF61KebTuC_q-41" value="" style="shape=tableRow;horizontal=0;startSize=0;swimlaneHead=0;swimlaneBody=0;strokeColor=inherit;top=0;left=0;bottom=0;right=0;collapsible=0;dropTarget=0;fillColor=none;points=[[0,0.5],[1,0.5]];portConstraint=eastwest;fontSize=16;" vertex="1" parent="ZIvRHzJ0gF61KebTuC_q-36">
          <mxGeometry y="110" width="50" height="54" as="geometry" />
        </mxCell>
        <mxCell id="ZIvRHzJ0gF61KebTuC_q-42" value="PKG1" style="shape=partialRectangle;html=1;whiteSpace=wrap;connectable=0;strokeColor=inherit;overflow=hidden;fillColor=none;top=0;left=0;bottom=0;right=0;pointerEvents=1;fontSize=16;" vertex="1" parent="ZIvRHzJ0gF61KebTuC_q-41">
          <mxGeometry width="50" height="54" as="geometry">
            <mxRectangle width="50" height="54" as="alternateBounds" />
          </mxGeometry>
        </mxCell>
        <mxCell id="ZIvRHzJ0gF61KebTuC_q-43" value="" style="shape=tableRow;horizontal=0;startSize=0;swimlaneHead=0;swimlaneBody=0;strokeColor=inherit;top=0;left=0;bottom=0;right=0;collapsible=0;dropTarget=0;fillColor=none;points=[[0,0.5],[1,0.5]];portConstraint=eastwest;fontSize=16;" vertex="1" parent="ZIvRHzJ0gF61KebTuC_q-36">
          <mxGeometry y="164" width="50" height="55" as="geometry" />
        </mxCell>
        <mxCell id="ZIvRHzJ0gF61KebTuC_q-44" value="PKG0" style="shape=partialRectangle;html=1;whiteSpace=wrap;connectable=0;strokeColor=inherit;overflow=hidden;fillColor=none;top=0;left=0;bottom=0;right=0;pointerEvents=1;fontSize=16;" vertex="1" parent="ZIvRHzJ0gF61KebTuC_q-43">
          <mxGeometry width="50" height="55" as="geometry">
            <mxRectangle width="50" height="55" as="alternateBounds" />
          </mxGeometry>
        </mxCell>
        <mxCell id="ZIvRHzJ0gF61KebTuC_q-45" value="" style="curved=1;endArrow=classic;html=1;rounded=0;strokeColor=default;shadow=0;entryX=0.25;entryY=0;entryDx=0;entryDy=0;exitX=0.374;exitY=0.99;exitDx=0;exitDy=0;exitPerimeter=0;" edge="1" parent="1" source="ZIvRHzJ0gF61KebTuC_q-15" target="ZIvRHzJ0gF61KebTuC_q-4">
          <mxGeometry width="50" height="50" relative="1" as="geometry">
            <mxPoint x="630" y="2630" as="sourcePoint" />
            <mxPoint x="580" y="2680" as="targetPoint" />
            <Array as="points">
              <mxPoint x="580" y="2630" />
              <mxPoint x="630" y="2680" />
            </Array>
          </mxGeometry>
        </mxCell>
        <mxCell id="ZIvRHzJ0gF61KebTuC_q-51" value="&lt;font style=&quot;font-size: 15px;&quot;&gt;1&lt;br&gt;&lt;/font&gt;" style="edgeLabel;html=1;align=center;verticalAlign=middle;resizable=0;points=[];" vertex="1" connectable="0" parent="ZIvRHzJ0gF61KebTuC_q-45">
          <mxGeometry x="0.241" y="1" relative="1" as="geometry">
            <mxPoint x="1" y="2" as="offset" />
          </mxGeometry>
        </mxCell>
        <mxCell id="ZIvRHzJ0gF61KebTuC_q-46" value="" style="curved=1;endArrow=classic;html=1;rounded=0;strokeColor=default;shadow=0;entryX=0.5;entryY=0;entryDx=0;entryDy=0;" edge="1" parent="1" source="ZIvRHzJ0gF61KebTuC_q-24" target="ZIvRHzJ0gF61KebTuC_q-4">
          <mxGeometry width="50" height="50" relative="1" as="geometry">
            <mxPoint x="711" y="2602" as="sourcePoint" />
            <mxPoint x="754" y="2690" as="targetPoint" />
            <Array as="points">
              <mxPoint x="676" y="2630" />
              <mxPoint x="726" y="2680" />
            </Array>
          </mxGeometry>
        </mxCell>
        <mxCell id="ZIvRHzJ0gF61KebTuC_q-49" value="2" style="edgeLabel;html=1;align=center;verticalAlign=middle;resizable=0;points=[];fontSize=15;" vertex="1" connectable="0" parent="ZIvRHzJ0gF61KebTuC_q-46">
          <mxGeometry x="0.2477" y="4" relative="1" as="geometry">
            <mxPoint x="5" y="6" as="offset" />
          </mxGeometry>
        </mxCell>
        <mxCell id="ZIvRHzJ0gF61KebTuC_q-47" value="" style="curved=1;endArrow=classic;html=1;rounded=0;strokeColor=default;shadow=0;entryX=0.75;entryY=0;entryDx=0;entryDy=0;fontSize=15;" edge="1" parent="1" source="ZIvRHzJ0gF61KebTuC_q-43" target="ZIvRHzJ0gF61KebTuC_q-4">
          <mxGeometry width="50" height="50" relative="1" as="geometry">
            <mxPoint x="806.25" y="2602" as="sourcePoint" />
            <mxPoint x="849.25" y="2690" as="targetPoint" />
            <Array as="points">
              <mxPoint x="771.25" y="2630" />
              <mxPoint x="820" y="2660" />
            </Array>
          </mxGeometry>
        </mxCell>
        <mxCell id="ZIvRHzJ0gF61KebTuC_q-50" value="3" style="edgeLabel;html=1;align=center;verticalAlign=middle;resizable=0;points=[];fontSize=15;" vertex="1" connectable="0" parent="ZIvRHzJ0gF61KebTuC_q-47">
          <mxGeometry x="0.015" y="-4" relative="1" as="geometry">
            <mxPoint x="9" y="7" as="offset" />
          </mxGeometry>
        </mxCell>
        <mxCell id="ZIvRHzJ0gF61KebTuC_q-53" value="" style="curved=1;endArrow=classic;html=1;rounded=0;strokeColor=default;shadow=0;exitX=0.05;exitY=0.738;exitDx=0;exitDy=0;exitPerimeter=0;" edge="1" parent="1" source="ZIvRHzJ0gF61KebTuC_q-13" target="ZIvRHzJ0gF61KebTuC_q-4">
          <mxGeometry width="50" height="50" relative="1" as="geometry">
            <mxPoint x="574" y="2619.55" as="sourcePoint" />
            <mxPoint x="598" y="2701.55" as="targetPoint" />
            <Array as="points">
              <mxPoint x="520" y="2641.55" />
              <mxPoint x="570" y="2691.55" />
            </Array>
          </mxGeometry>
        </mxCell>
        <mxCell id="ZIvRHzJ0gF61KebTuC_q-55" value="&lt;font style=&quot;font-size: 15px;&quot;&gt;4&lt;br&gt;&lt;/font&gt;" style="edgeLabel;html=1;align=center;verticalAlign=middle;resizable=0;points=[];" vertex="1" connectable="0" parent="ZIvRHzJ0gF61KebTuC_q-53">
          <mxGeometry x="0.241" y="1" relative="1" as="geometry">
            <mxPoint x="17" y="17" as="offset" />
          </mxGeometry>
        </mxCell>
        <mxCell id="ZIvRHzJ0gF61KebTuC_q-60" value="" style="curved=1;endArrow=classic;html=1;rounded=0;strokeColor=default;shadow=0;exitX=0.05;exitY=0.738;exitDx=0;exitDy=0;exitPerimeter=0;entryX=0.313;entryY=0.004;entryDx=0;entryDy=0;entryPerimeter=0;" edge="1" parent="1" target="ZIvRHzJ0gF61KebTuC_q-4">
          <mxGeometry width="50" height="50" relative="1" as="geometry">
            <mxPoint x="700.5" y="2532.46" as="sourcePoint" />
            <mxPoint x="672.5" y="2687.46" as="targetPoint" />
            <Array as="points">
              <mxPoint x="660" y="2620" />
              <mxPoint x="653" y="2650" />
              <mxPoint x="660" y="2680" />
            </Array>
          </mxGeometry>
        </mxCell>
        <mxCell id="ZIvRHzJ0gF61KebTuC_q-61" value="&lt;font style=&quot;font-size: 15px;&quot;&gt;5&lt;br&gt;&lt;/font&gt;" style="edgeLabel;html=1;align=center;verticalAlign=middle;resizable=0;points=[];" vertex="1" connectable="0" parent="ZIvRHzJ0gF61KebTuC_q-60">
          <mxGeometry x="0.241" y="1" relative="1" as="geometry">
            <mxPoint x="2" y="26" as="offset" />
          </mxGeometry>
        </mxCell>
        <mxCell id="ZIvRHzJ0gF61KebTuC_q-62" value="" style="curved=1;endArrow=classic;html=1;rounded=0;strokeColor=default;shadow=0;exitX=0.05;exitY=0.738;exitDx=0;exitDy=0;exitPerimeter=0;entryX=0.635;entryY=-0.003;entryDx=0;entryDy=0;entryPerimeter=0;" edge="1" parent="1" target="ZIvRHzJ0gF61KebTuC_q-4">
          <mxGeometry width="50" height="50" relative="1" as="geometry">
            <mxPoint x="785" y="2532.5" as="sourcePoint" />
            <mxPoint x="757" y="2687.5" as="targetPoint" />
            <Array as="points">
              <mxPoint x="720" y="2620" />
              <mxPoint x="740" y="2670" />
            </Array>
          </mxGeometry>
        </mxCell>
        <mxCell id="ZIvRHzJ0gF61KebTuC_q-63" value="&lt;font style=&quot;font-size: 15px;&quot;&gt;6&lt;br&gt;&lt;/font&gt;" style="edgeLabel;html=1;align=center;verticalAlign=middle;resizable=0;points=[];" vertex="1" connectable="0" parent="ZIvRHzJ0gF61KebTuC_q-62">
          <mxGeometry x="0.241" y="1" relative="1" as="geometry">
            <mxPoint x="17" y="31" as="offset" />
          </mxGeometry>
        </mxCell>
        <mxCell id="ZIvRHzJ0gF61KebTuC_q-69" value="VF0" style="shape=callout;whiteSpace=wrap;html=1;perimeter=calloutPerimeter;fillColor=#fa6800;fontColor=#000000;strokeColor=#C73500;sketch=1;curveFitting=1;jiggle=2;rounded=1;" vertex="1" parent="1">
          <mxGeometry x="600" y="2320" width="60" height="60" as="geometry" />
        </mxCell>
        <mxCell id="ZIvRHzJ0gF61KebTuC_q-70" value="VF1" style="shape=callout;whiteSpace=wrap;html=1;perimeter=calloutPerimeter;fillColor=#fa6800;fontColor=#000000;strokeColor=#C73500;sketch=1;curveFitting=1;jiggle=2;rounded=1;" vertex="1" parent="1">
          <mxGeometry x="692.5" y="2320" width="60" height="60" as="geometry" />
        </mxCell>
        <mxCell id="ZIvRHzJ0gF61KebTuC_q-71" value="VF2" style="shape=callout;whiteSpace=wrap;html=1;perimeter=calloutPerimeter;sketch=1;curveFitting=1;jiggle=2;rounded=1;shadow=0;fillColor=#fa6800;strokeColor=#C73500;fontColor=#000000;" vertex="1" parent="1">
          <mxGeometry x="785" y="2320" width="60" height="60" as="geometry" />
        </mxCell>
      </root>
    </mxGraphModel>
  </diagram>
</mxfile>
